<svg width="45" height="57" viewBox="0 0 45 57" fill="none" xmlns="http://www.w3.org/2000/svg">
<path fill-rule="evenodd" clip-rule="evenodd" d="M22.5 16.286C19.111 16.286 16.3636 19.0203 16.3636 22.3932C16.3636 25.7661 19.111 28.5004 22.5 28.5004C25.889 28.5004 28.6364 25.7661 28.6364 22.3932C28.6364 19.0203 25.889 16.286 22.5 16.286ZM12.2727 22.3932C12.2727 16.7716 16.8516 12.2145 22.5 12.2145C28.1484 12.2145 32.7273 16.7716 32.7273 22.3932C32.7273 28.0147 28.1484 32.5719 22.5 32.5719C16.8516 32.5719 12.2727 28.0147 12.2727 22.3932Z" fill="#D59C28"/>
<path fill-rule="evenodd" clip-rule="evenodd" d="M22.5 4.07149C17.6176 4.07149 12.9352 6.00181 9.48281 9.43779C6.03043 12.8738 4.09091 17.534 4.09091 22.3932C4.09091 30.8211 8.81969 38.4952 13.8162 44.214C16.2895 47.0448 18.7681 49.3271 20.6287 50.9011C21.3646 51.5236 22.0014 52.0333 22.5 52.4204C22.9986 52.0333 23.6354 51.5236 24.3713 50.9011C26.2319 49.3271 28.7105 47.0448 31.1838 44.214C36.1803 38.4952 40.9091 30.8211 40.9091 22.3932C40.9091 17.534 38.9696 12.8738 35.5172 9.43779C32.0648 6.00181 27.3824 4.07149 22.5 4.07149ZM22.5 54.9651C21.327 56.6329 21.3258 56.632 21.3258 56.632L21.3241 56.6308L21.3193 56.6275L21.3042 56.6169L21.2522 56.58C21.208 56.5486 21.1449 56.5034 21.0643 56.4448C20.903 56.3277 20.6712 56.1567 20.379 55.9344C19.7948 55.4901 18.968 54.8398 17.9792 54.0033C16.0047 52.3329 13.3696 49.9076 10.7292 46.8856C5.49849 40.8988 0 32.287 0 22.3932C0 16.4541 2.37053 10.7584 6.5901 6.55881C10.8097 2.35928 16.5326 0 22.5 0C28.4674 0 34.1903 2.35928 38.4099 6.55881C42.6295 10.7584 45 16.4541 45 22.3932C45 32.287 39.5015 40.8988 34.2708 46.8856C31.6304 49.9076 28.9953 52.3329 27.0208 54.0033C26.032 54.8398 25.2052 55.4901 24.621 55.9344C24.3288 56.1567 24.097 56.3277 23.9357 56.4448C23.8551 56.5034 23.792 56.5486 23.7478 56.58L23.6958 56.6169L23.6807 56.6275L23.6759 56.6308L23.6742 56.632C23.6742 56.632 23.673 56.6329 22.5 54.9651ZM22.5 54.9651L23.6742 56.632C22.9699 57.1227 22.0301 57.1227 21.3258 56.632L22.5 54.9651Z" fill="#D59C28"/>
</svg>
