<?xml version="1.0" encoding="utf-8"?>
<!-- Generator: Adobe Illustrator 16.0.0, SVG Export Plug-In . SVG Version: 6.00 Build 0)  -->
<!DOCTYPE svg PUBLIC "-//W3C//DTD SVG 1.1//EN" "http://www.w3.org/Graphics/SVG/1.1/DTD/svg11.dtd">
<svg version="1.1" id="Layer_1" xmlns="http://www.w3.org/2000/svg" xmlns:xlink="http://www.w3.org/1999/xlink" x="0px" y="0px"
	 width="16px" height="16px" viewBox="0 0 16 16" enable-background="new 0 0 16 16" xml:space="preserve">
<rect x="-24.605" y="-2.1" fill="none" width="20" height="20"/>
<g>
	<path fill="#999999" d="M8.026,0C3.567,0,0,3.369,0,7.58v5.893c0,0.671,0.282,1.313,0.784,1.788C1.285,15.734,1.966,16,2.675,16
		h2.676V9.262H1.783V7.58c0-1.564,0.658-3.063,1.828-4.168C4.782,2.306,6.37,1.685,8.026,1.685c1.656,0,3.244,0.621,4.414,1.726
		s1.829,2.604,1.829,4.168v1.682h-3.567V16h2.674c0.712,0,1.393-0.266,1.893-0.739c0.5-0.475,0.784-1.117,0.784-1.788V7.58
		C16.052,3.369,12.458,0,8.026,0z"/>
</g>
</svg>
