<?xml version="1.0" encoding="utf-8"?>
<!-- Generator: Adobe Illustrator 16.0.0, SVG Export Plug-In . SVG Version: 6.00 Build 0)  -->
<!DOCTYPE svg PUBLIC "-//W3C//DTD SVG 1.1//EN" "http://www.w3.org/Graphics/SVG/1.1/DTD/svg11.dtd">
<svg version="1.1" id="Layer_1" xmlns="http://www.w3.org/2000/svg" xmlns:xlink="http://www.w3.org/1999/xlink" x="0px" y="0px"
	 width="16px" height="16px" viewBox="0 0 16 16" enable-background="new 0 0 16 16" xml:space="preserve">
<g>
	<path fill="#999999" d="M13.813,1.404H4.549v11.758h9.265c0.259,0,0.466-0.207,0.466-0.467V1.871
		C14.279,1.612,14.072,1.404,13.813,1.404z M5.953,5.614c0-0.258,0.209-0.469,0.467-0.469h2.996c0.256,0,0.466,0.211,0.466,0.469
		v1.872c0,0.258-0.21,0.468-0.466,0.468H6.42c-0.258,0-0.467-0.21-0.467-0.468V5.614z M11.287,11.696H6.42
		c-0.258,0-0.467-0.207-0.467-0.466S6.163,10.76,6.42,10.76h4.867c0.257,0,0.467,0.212,0.467,0.471S11.544,11.696,11.287,11.696z
		 M12.41,9.826H6.42c-0.258,0-0.467-0.21-0.467-0.468c0-0.259,0.209-0.468,0.467-0.468h5.99c0.257,0,0.467,0.209,0.467,0.468
		C12.877,9.616,12.667,9.826,12.41,9.826z M12.41,7.954h-1.123c-0.258,0-0.469-0.21-0.469-0.468c0-0.258,0.211-0.468,0.469-0.468
		h1.123c0.257,0,0.467,0.209,0.467,0.468C12.877,7.744,12.667,7.954,12.41,7.954z M12.41,6.081h-1.123
		c-0.258,0-0.469-0.209-0.469-0.467s0.211-0.469,0.469-0.469h1.123c0.257,0,0.467,0.211,0.467,0.469
		C12.877,5.873,12.667,6.081,12.41,6.081z M12.41,4.21H6.42c-0.258,0-0.467-0.209-0.467-0.468c0-0.258,0.209-0.469,0.467-0.469h5.99
		c0.257,0,0.467,0.21,0.467,0.469C12.877,4.001,12.667,4.21,12.41,4.21z"/>
	<path fill="#999999" d="M2.21,12.695c-0.775,0-1.404,0.627-1.404,1.403v0.007c0,1.03,0.836,1.865,1.866,1.865h9.737l0,0
		c0.258,0,0.467-0.209,0.467-0.466c0-0.26,0-1.406,0-1.406H3.613C3.613,13.322,2.985,12.695,2.21,12.695z"/>
	<path fill="#999999" d="M2.21,11.759c0.525,0,1.012,0.175,1.403,0.469V1.404C3.613,0.63,2.984,0,2.21,0
		C1.436,0,0.806,0.63,0.806,1.404v10.824C1.198,11.934,1.683,11.759,2.21,11.759z"/>
</g>
</svg>
