<svg width="10" height="10" viewBox="0 0 10 10" fill="none" xmlns="http://www.w3.org/2000/svg">
<path fill-rule="evenodd" clip-rule="evenodd" d="M0.162718 0.162718C0.379676 -0.0542395 0.731435 -0.0542395 0.948393 0.162718L9.83728 9.05161C10.0542 9.26857 10.0542 9.62032 9.83728 9.83728C9.62032 10.0542 9.26857 10.0542 9.05161 9.83728L0.162718 0.948393C-0.0542395 0.731435 -0.0542395 0.379676 0.162718 0.162718Z" fill="white"/>
<path fill-rule="evenodd" clip-rule="evenodd" d="M9.44444 1.66667C9.75127 1.66667 10 1.9154 10 2.22222V9.44444C10 9.75127 9.75127 10 9.44444 10H2.22222C1.9154 10 1.66667 9.75127 1.66667 9.44444C1.66667 9.13762 1.9154 8.88889 2.22222 8.88889H8.88889V2.22222C8.88889 1.9154 9.13762 1.66667 9.44444 1.66667Z" fill="white"/>
</svg>
