<svg width="24" height="24" viewBox="0 0 24 24" fill="none" xmlns="http://www.w3.org/2000/svg">
<path fill-rule="evenodd" clip-rule="evenodd" d="M22 19C22 20.6569 20.6569 22 19 22L5 22C3.34315 22 2 20.6569 2 19V9.17681C2 8.08731 2.59068 7.08344 3.54307 6.55433L11.5144 2.12584C11.8164 1.95805 12.1836 1.95805 12.4856 2.12584L20.4569 6.55433C21.4093 7.08344 22 8.08731 22 9.17681V19Z" fill="#ED1C24"/>
<path fill-rule="evenodd" clip-rule="evenodd" d="M9 15C9 14.4477 9.44772 14 10 14L14 14C14.5523 14 15 14.4477 15 15C15 15.5523 14.5523 16 14 16L10 16C9.44772 16 9 15.5523 9 15Z" fill="white"/>
</svg>
