<?xml version="1.0" encoding="utf-8"?>
<!-- Generator: Adobe Illustrator 16.0.0, SVG Export Plug-In . SVG Version: 6.00 Build 0)  -->
<!DOCTYPE svg PUBLIC "-//W3C//DTD SVG 1.1//EN" "http://www.w3.org/Graphics/SVG/1.1/DTD/svg11.dtd">
<svg version="1.1" id="Layer_1" xmlns="http://www.w3.org/2000/svg" xmlns:xlink="http://www.w3.org/1999/xlink" x="0px" y="0px"
	 width="16px" height="16px" viewBox="0 0 16 16" enable-background="new 0 0 16 16" xml:space="preserve">
<path fill="#999999" d="M8.063,0C3.679,0,0.125,3.555,0.125,7.938c0,4.384,3.554,7.938,7.938,7.938c4.383,0,7.937-3.554,7.937-7.938
	C16,3.555,12.446,0,8.063,0z M11.075,8.488l-3.968,2.646c-0.203,0.136-0.464,0.148-0.679,0.034c-0.215-0.117-0.349-0.34-0.349-0.584
	V5.292c0-0.244,0.134-0.468,0.349-0.583c0.215-0.115,0.476-0.103,0.679,0.032l3.968,2.646c0.185,0.123,0.295,0.33,0.295,0.55
	C11.37,8.159,11.26,8.365,11.075,8.488z"/>
</svg>
