<svg width="50" height="50" viewBox="0 0 50 50" fill="none" xmlns="http://www.w3.org/2000/svg">
<path fill-rule="evenodd" clip-rule="evenodd" d="M36.4583 2.08333C36.4583 0.93274 37.3911 0 38.5417 0H45.8333C46.9384 0 47.9982 0.438987 48.7796 1.22039C49.561 2.00179 50 3.0616 50 4.16667V11.4583C50 12.6089 49.0673 13.5417 47.9167 13.5417C46.7661 13.5417 45.8333 12.6089 45.8333 11.4583V4.16667L38.5417 4.16667C37.3911 4.16667 36.4583 3.23393 36.4583 2.08333Z" fill="#D59C28"/>
<path fill-rule="evenodd" clip-rule="evenodd" d="M47.9167 36.4583C49.0673 36.4583 50 37.3911 50 38.5417V45.8333C50 46.9384 49.561 47.9982 48.7796 48.7796C47.9982 49.561 46.9384 50 45.8333 50H38.5417C37.3911 50 36.4583 49.0673 36.4583 47.9167C36.4583 46.7661 37.3911 45.8333 38.5417 45.8333H45.8333V38.5417C45.8333 37.3911 46.7661 36.4583 47.9167 36.4583Z" fill="#D59C28"/>
<path fill-rule="evenodd" clip-rule="evenodd" d="M2.08333 36.4583C3.23393 36.4583 4.16667 37.3911 4.16667 38.5417V45.8333H11.4583C12.6089 45.8333 13.5417 46.7661 13.5417 47.9167C13.5417 49.0673 12.6089 50 11.4583 50H4.16667C3.0616 50 2.00179 49.561 1.22039 48.7796C0.438987 47.9982 0 46.9384 0 45.8333V38.5417C0 37.3911 0.93274 36.4583 2.08333 36.4583Z" fill="#D59C28"/>
<path fill-rule="evenodd" clip-rule="evenodd" d="M1.22039 1.22039C2.00179 0.438988 3.0616 0 4.16667 0H11.4583C12.6089 0 13.5417 0.93274 13.5417 2.08333C13.5417 3.23393 12.6089 4.16667 11.4583 4.16667L4.16667 4.16667L4.16667 11.4583C4.16667 12.6089 3.23393 13.5417 2.08333 13.5417C0.93274 13.5417 0 12.6089 0 11.4583V4.16667C0 3.0616 0.438988 2.00179 1.22039 1.22039Z" fill="#D59C28"/>
<path fill-rule="evenodd" clip-rule="evenodd" d="M25 14.5833C21.5482 14.5833 18.75 17.3816 18.75 20.8333C18.75 24.2851 21.5482 27.0833 25 27.0833C28.4518 27.0833 31.25 24.2851 31.25 20.8333C31.25 17.3816 28.4518 14.5833 25 14.5833ZM14.5833 20.8333C14.5833 15.0804 19.247 10.4167 25 10.4167C30.753 10.4167 35.4167 15.0804 35.4167 20.8333C35.4167 26.5863 30.753 31.25 25 31.25C19.247 31.25 14.5833 26.5863 14.5833 20.8333Z" fill="#D59C28"/>
<path fill-rule="evenodd" clip-rule="evenodd" d="M25 31.2627C22.5352 31.2627 20.1169 31.9342 18.0049 33.2049C15.8929 34.4757 14.167 36.2978 13.0126 38.4756C12.4737 39.4922 11.2127 39.8794 10.1961 39.3405C9.17951 38.8016 8.79229 37.5406 9.3312 36.524C10.8402 33.6775 13.0962 31.2958 15.8567 29.6347C18.6173 27.9737 21.7782 27.096 25 27.096C28.2218 27.096 31.3827 27.9737 34.1433 29.6347C36.9039 31.2958 39.1598 33.6775 40.6688 36.524C41.2077 37.5406 40.8205 38.8016 39.8039 39.3405C38.7873 39.8794 37.5264 39.4922 36.9874 38.4756C35.833 36.2978 34.1071 34.4757 31.9951 33.2049C29.8831 31.9342 27.4648 31.2627 25 31.2627Z" fill="#D59C28"/>
</svg>
