<?xml version="1.0" encoding="utf-8"?>
<!-- Generator: Adobe Illustrator 16.0.0, SVG Export Plug-In . SVG Version: 6.00 Build 0)  -->
<!DOCTYPE svg PUBLIC "-//W3C//DTD SVG 1.1//EN" "http://www.w3.org/Graphics/SVG/1.1/DTD/svg11.dtd">
<svg version="1.1" id="Layer_1" xmlns="http://www.w3.org/2000/svg" xmlns:xlink="http://www.w3.org/1999/xlink" x="0px" y="0px"
	 width="16px" height="16px" viewBox="0 0 16 16" enable-background="new 0 0 16 16" xml:space="preserve">
<path fill="#999999" d="M14.403,1.634H1.638c-0.879,0-1.596,0.715-1.596,1.596v9.574c0,0.881,0.717,1.597,1.596,1.597h12.766
	c0.878,0,1.597-0.716,1.597-1.597V3.229C16,2.349,15.281,1.634,14.403,1.634z M3.633,4.028c0.317,0,0.622,0.125,0.846,0.351
	C4.703,4.604,4.83,4.908,4.83,5.225c0,0.317-0.126,0.623-0.351,0.846c-0.225,0.224-0.53,0.35-0.846,0.35S3.01,6.295,2.787,6.07
	C2.563,5.845,2.436,5.542,2.436,5.225c0-0.316,0.126-0.622,0.351-0.846C3.011,4.155,3.315,4.028,3.633,4.028z M8.021,12.007H2.436
	l3.191-3.99l1.197,1.597l2.394-3.192l4.388,5.586H8.021z"/>
</svg>
