<?xml version="1.0" encoding="utf-8"?>
<!-- Generator: Adobe Illustrator 16.0.0, SVG Export Plug-In . SVG Version: 6.00 Build 0)  -->
<!DOCTYPE svg PUBLIC "-//W3C//DTD SVG 1.1//EN" "http://www.w3.org/Graphics/SVG/1.1/DTD/svg11.dtd">
<svg version="1.1" id="Layer_1" xmlns="http://www.w3.org/2000/svg" xmlns:xlink="http://www.w3.org/1999/xlink" x="0px" y="0px"
	 width="16px" height="16px" viewBox="0 0 16 16" enable-background="new 0 0 16 16" xml:space="preserve">
<path fill="#999999" d="M14.301,12.875l-2.883-2.884c0.385-0.634,0.576-1.314,0.576-2.042c0-0.925-0.283-1.745-0.85-2.462
	C10.578,4.77,9.859,4.298,8.986,4.068V0c1.31,0.167,2.496,0.618,3.562,1.356c1.064,0.738,1.907,1.687,2.524,2.844
	C15.689,5.359,16,6.608,16,7.949C16,9.778,15.433,11.42,14.301,12.875z M4.123,6.937H0.039c0.229-1.808,0.989-3.358,2.283-4.653
	C3.617,0.99,5.167,0.229,6.975,0v4.068C6.278,4.254,5.674,4.605,5.16,5.121C4.645,5.635,4.299,6.24,4.123,6.937z M4.106,8.947
	c0.229,0.871,0.702,1.592,1.418,2.158s1.538,0.85,2.462,0.85c0.728,0,1.408-0.191,2.042-0.575l2.884,2.882
	c-1.456,1.133-3.097,1.699-4.926,1.699c-1.34,0-2.59-0.31-3.749-0.928c-1.159-0.617-2.106-1.46-2.844-2.524
	c-0.737-1.065-1.188-2.253-1.355-3.562H4.106z"/>
</svg>
