<svg width="54" height="58" viewBox="0 0 54 58" fill="none" xmlns="http://www.w3.org/2000/svg">
<path fill-rule="evenodd" clip-rule="evenodd" d="M0 8.92308C0 6.45904 2.01472 4.46154 4.5 4.46154H49.5C51.9853 4.46154 54 6.45904 54 8.92308V53.5385C54 56.0025 51.9853 58 49.5 58H4.5C2.01472 58 0 56.0025 0 53.5385V8.92308ZM49.5 8.92308H4.5V53.5385H49.5V8.92308Z" fill="#D59C28"/>
<path fill-rule="evenodd" clip-rule="evenodd" d="M40.5 0C41.7426 0 42.75 0.998749 42.75 2.23077V11.1538C42.75 12.3859 41.7426 13.3846 40.5 13.3846C39.2574 13.3846 38.25 12.3859 38.25 11.1538V2.23077C38.25 0.998749 39.2574 0 40.5 0Z" fill="#D59C28"/>
<path fill-rule="evenodd" clip-rule="evenodd" d="M13.5 0C14.7426 0 15.75 0.998749 15.75 2.23077V11.1538C15.75 12.3859 14.7426 13.3846 13.5 13.3846C12.2574 13.3846 11.25 12.3859 11.25 11.1538V2.23077C11.25 0.998749 12.2574 0 13.5 0Z" fill="#D59C28"/>
<path fill-rule="evenodd" clip-rule="evenodd" d="M0 20.0769C0 18.8449 1.00736 17.8462 2.25 17.8462H51.75C52.9926 17.8462 54 18.8449 54 20.0769C54 21.3089 52.9926 22.3077 51.75 22.3077H2.25C1.00736 22.3077 0 21.3089 0 20.0769Z" fill="#D59C28"/>
<path fill-rule="evenodd" clip-rule="evenodd" d="M14.625 31.2308C14.625 29.9987 15.6324 29 16.875 29H24.75C25.6149 29 26.4033 29.4915 26.7779 30.2644C27.1526 31.0373 27.0473 31.9547 26.507 32.6243L24.0166 35.7106C24.7462 36.1956 25.3753 36.8185 25.8664 37.5457C26.4845 38.4609 26.8652 39.5131 26.9748 40.6092C27.0844 41.7052 26.9194 42.8111 26.4945 43.8287C26.0697 44.8464 25.3981 45.7443 24.5393 46.4429C23.6805 47.1415 22.661 47.6192 21.5714 47.8336C20.4818 48.0479 19.3556 47.9923 18.2928 47.6717C17.2301 47.3511 16.2635 46.7754 15.479 45.9957C14.6013 45.1235 14.6031 43.711 15.4828 42.8409C16.3625 41.9708 17.7872 41.9725 18.6648 42.8447C18.9263 43.1046 19.2485 43.2965 19.6027 43.4034C19.957 43.5103 20.3324 43.5288 20.6956 43.4573C21.0588 43.3859 21.3986 43.2267 21.6849 42.9938C21.9712 42.7609 22.195 42.4616 22.3366 42.1224C22.4783 41.7832 22.5333 41.4145 22.4967 41.0492C22.4602 40.6839 22.3333 40.3331 22.1273 40.0281C21.9213 39.723 21.6425 39.4731 21.3157 39.3004C20.9889 39.1278 20.6241 39.0378 20.2538 39.0385C19.3882 39.0399 18.5985 38.5489 18.2229 37.7758C17.8473 37.0026 17.9523 36.0843 18.493 35.4141L20.0686 33.4615H16.875C15.6324 33.4615 14.625 32.4628 14.625 31.2308Z" fill="#D59C28"/>
<path fill-rule="evenodd" clip-rule="evenodd" d="M37.0064 29.2355C37.7686 29.6134 38.2501 30.3858 38.2501 31.2308V45.7308C38.2501 46.9628 37.2428 47.9615 36.0001 47.9615C34.7575 47.9615 33.7501 46.9628 33.7501 45.7308V35.6923L32.8501 36.3615C31.856 37.1008 30.4457 36.901 29.7001 35.9154C28.9545 34.9298 29.156 33.5315 30.1501 32.7923L34.6501 29.4462C35.3319 28.9392 36.2441 28.8576 37.0064 29.2355Z" fill="#D59C28"/>
</svg>
